<?xml version="1.0" encoding="utf-8"?>
<!-- Generator: Adobe Illustrator 26.4.1, SVG Export Plug-In . SVG Version: 6.00 Build 0)  -->
<svg version="1.1" id="Layer_1" xmlns="http://www.w3.org/2000/svg" xmlns:xlink="http://www.w3.org/1999/xlink" x="0px" y="0px"
	 viewBox="0 0 253.5 226.5" style="enable-background:new 0 0 253.5 226.5;" xml:space="preserve">
<style type="text/css">
	.st0{fill:#FFFFFF;}
	.st1{fill:#231F20;}
	.st2{fill:#C92027;}
	.st3{fill:none;stroke:#231F20;stroke-width:0.7925;stroke-linejoin:round;stroke-miterlimit:10;}
	.st4{fill:#FCEE28;}
</style>

<g>
	<path class="st1" d="M122.7,218.11c-9.75,0-15.78-3.03-18.89-5.24c-3.08,0.84-8.48,1.98-15.15,1.98c-8.54,0-14.88-3.34-17.5-5.01
		c-22.49-2.03-28.32-14.75-29.24-17.2l-8.14-18.5l-6.44-6.68c-0.73-0.75-1.19-1.72-1.32-2.76c-0.1-0.78-0.85-7.8,2.46-15.33
		c3.62-8.24,7.64-20.62,0.73-32.99c-1.09-1.94-0.71-4.37,0.91-5.89c0.92-0.86,2.11-1.31,3.31-1.31c0.15,0,0.3,0.01,0.45,0.02
		c-1.73-5.78-2.83-11.68-2.4-16.96c0.77-9.39,6.73-16.77,11.98-23.29c4.41-5.46,8.57-10.63,8.11-15.21
		c-0.23-2.27,1.16-4.39,3.33-5.09c0.49-0.16,0.99-0.23,1.48-0.23c1.69,0,3.31,0.89,4.19,2.42c0.21,0.36,3.87,6.93,1.02,15.75
		c2.52-5.86,4.42-12.89,4.03-19.85c-0.14-2.48,1.63-4.66,4.08-5.05c0.25-0.04,0.5-0.06,0.75-0.06c2.17,0,4.11,1.46,4.68,3.62
		c0.11,0.42,1.46,5.76,1.22,13.34c4.12-5.62,8.77-9.39,9.07-9.63c0.46-0.37,0.96-0.64,1.49-0.81c2.51-5.67,5.62-9.42,8.42-12.79
		c4.44-5.35,7.95-9.57,8.89-20.83c0.2-2.39,2.11-4.27,4.5-4.43c0.11-0.01,0.22-0.01,0.33-0.01c2.26,0,4.23,1.57,4.72,3.8
		c0.08,0.34,1.08,5.1,0.32,11.84c0.91-0.85,2.09-1.3,3.3-1.3c0.85,0,1.7,0.22,2.48,0.69c2.18,1.31,2.98,4.08,1.83,6.35
		c-0.06,0.12-6.32,12.72-3.11,22.36c1.61,4.83,3.06,10.03,3.55,15.37c0.11-0.03,0.23-0.06,0.34-0.08c0.07-0.01,0.14-0.03,0.21-0.04
		c0.83-4.09,2.32-6.75,3.52-8.92c2.14-3.85,3.69-6.64-1.62-20.85c-0.82-2.2,0.05-4.66,2.07-5.86c0.77-0.45,1.62-0.67,2.46-0.67
		c1.37,0,2.72,0.58,3.67,1.68c0.05,0.06,0.2,0.24,0.44,0.53c-0.46-2.42-0.77-5.12-0.86-8.18c-0.07-2.41,1.63-4.5,4-4.91
		c0.28-0.05,0.56-0.07,0.84-0.07c2.06,0,3.94,1.32,4.6,3.34c0.03,0.09,3.49,10.39,11.48,19.09c1.35,1.47,2.53,2.94,3.57,4.43
		c0.85,0.01,1.7,0.25,2.47,0.73c0.33,0.2,4.55,2.9,8.6,8.88c-0.95-13.49,1.17-26.24,1.29-26.96c0.4-2.34,2.43-4.02,4.76-4.02
		c0.15,0,0.3,0.01,0.45,0.02c2.52,0.23,4.43,2.37,4.39,4.9c-0.12,7.52,0.74,27.77,5.77,38.37c-1.97-6.94,1.33-14.16,1.72-14.98
		c0.82-1.72,2.54-2.75,4.36-2.75c0.45,0,0.92,0.06,1.37,0.2c2.28,0.67,3.73,2.9,3.43,5.26c-0.02,0.19-0.55,6.05,4.75,11.73
		c7.35,7.9,14.5,17.43,13.18,29.02c4.58-3.11,8.79-3.63,9.09-3.66c0.18-0.02,0.36-0.03,0.54-0.03c2.05,0,3.91,1.3,4.58,3.28
		c0.73,2.15-0.14,4.52-2.08,5.7c-0.45,0.28-11.61,7.41-12.27,23.96c-0.44,10.93,1.79,18.17,3.75,24.56
		c1.42,4.62,2.64,8.61,2.51,12.94c-0.25,8.43-5.68,12.44-10.29,13.52l-2.94,8.58c-0.07,0.2-0.15,0.4-0.25,0.59
		c-0.25,0.5-6.22,12.28-15.55,17.84c-7.89,4.7-18.87,5.31-22.44,5.37c-4.87,1.92-10.09,2.89-15.54,2.89
		c-4.75,0-8.71-0.76-11.17-1.39C138.29,215.29,132.36,218.11,122.7,218.11z M182.88,129.93c-1.4,2.79-1.99,5.57-1.68,12.31
		c0.17,3.82,1.39,7.9,4.28,7.9c1.56,0,3.11-1.14,3.32-2.45C189.01,146.37,189.06,141.59,182.88,129.93z M62.51,126.92
		c-3.41,5.14-6.08,9.87-6.52,15.15c-0.22,2.64,0.24,4.86,1.22,5.93c0.34,0.37,0.72,0.56,1.11,0.56c0.65,0,1.63-0.52,2.46-1.98
		C64.27,140.43,64.86,133.3,62.51,126.92z M159.02,92.63c-2.67,12.37-5.71,30.36-0.95,36.77c0.97,1.31,1.96,1.97,2.95,1.97
		c2.54,0,5.54-3.6,5.54-6.65c0-2.86-1.4-7.06-2.89-11.5C161.62,107.07,159.3,100.13,159.02,92.63z M83.32,73.38
		c-0.32,1.74-0.43,3.46-0.22,5.1c0.29,2.32,0.63,4.43,0.95,6.47c1.41,8.8,2.62,16.4-2.28,29.01c-2.05,5.28-2.81,8.92-2.26,10.83
		c0.4,1.36,1.76,2.48,4.34,4.5l0.3,0.23c0.09,0.07,0.17,0.11,0.21,0.11c0.22,0,1.01-0.26,2.03-1.43c2.43-2.8,4.57-8.98,3.29-17.92
		c-0.66-4.62-1.64-9.39-2.68-14.44C85.46,88.4,83.9,80.82,83.32,73.38z M129.02,97.37c-1.09,7.33-2.17,15.32,0.81,17.38
		c1,0.69,2.1,1.07,3.1,1.07c0.81,0,1.5-0.24,1.9-0.67c0.36-0.39,0.52-1,0.46-1.81c-0.13-1.79-2.38-6.97-4.35-11.53
		C130.3,100.35,129.66,98.86,129.02,97.37z M114.74,95.6c-3.36,6.79-6.4,14.83-2.55,17.66c0.44,0.32,0.82,0.58,1.16,0.8
		c0.02-0.94-0.03-2.3-0.23-4.23C112.66,105.35,113.19,100.65,114.74,95.6z M191.94,110.37c-0.12,0.42-0.25,0.84-0.38,1.26
		c0.02-0.03,0.04-0.07,0.06-0.11C191.78,111.22,191.89,110.83,191.94,110.37z M141.96,53.98c0.52,3.43,0.45,7.09-0.6,10.78
		c-3.8,13.33-3.36,13.49,0.1,14.71c0.13,0.05,0.21,0.05,0.26,0.05c0.48,0,1.62-0.67,2.8-2.51c2.45-3.81,3.76-10.72,1.34-16.02
		C144.68,58.37,143.32,56.12,141.96,53.98z M57.88,73.86c-0.35,0.48-0.71,0.97-1.1,1.46c-1.15,1.44-1.88,2.59-2.35,3.47
		C55.43,77.59,56.64,75.91,57.88,73.86z M103.09,52.52c-5.91,11.75-6.36,19.05-1.54,22.7c1.9,1.43,2.83,1.48,2.93,1.48
		c1.07-0.6,2.25-5.5,1.01-9.48l-0.09-0.28C104.24,63.19,102.8,58.54,103.09,52.52z"/>
</g>
<g>
	<path class="st1" d="M122.7,213.75c-11.46,0-16.79-4.6-17.94-5.73c-1.42,0.49-7.68,2.47-16.1,2.47c-9.03,0-15.08-4.2-16.02-4.9
		c-22.44-1.61-26.53-14.08-26.69-14.61l-8.49-19.3l-6.98-7.24c-0.07-0.08-0.12-0.17-0.13-0.28c-0.03-0.26-0.77-6.47,2.12-13.04
		c2.3-5.24,9.32-21.18,0.54-36.87c-0.11-0.19-0.07-0.44,0.09-0.59c0.09-0.09,0.21-0.13,0.33-0.13c0.09,0,0.18,0.03,0.26,0.08
		c0.37,0.24,9.08,5.97,9.61,14.46c0.37,5.87,1.91,8.54,3.2,8.54c0.58,0,1.08-0.53,1.4-0.97c0.66-0.9-1.5-6.05-3.58-11.02
		c-3.93-9.38-9.31-22.23-8.51-32.03c0.66-8.05,5.93-14.59,11.03-20.91c4.98-6.18,9.69-12.02,9.05-18.38
		c-0.02-0.23,0.12-0.44,0.33-0.51c0.05-0.02,0.1-0.02,0.15-0.02c0.17,0,0.33,0.09,0.42,0.24c0.05,0.09,1.3,2.29,1.5,5.82
		c0.18,3.24-0.52,8.25-4.93,13.76c-3.48,4.35-4.82,7.95-3.76,10.14c0.7,1.45,2.31,1.97,3.59,1.97c0.34,0,0.68-0.04,1-0.1
		c3.36-0.72,16.82-19.62,15.79-38.1c-0.01-0.25,0.16-0.47,0.41-0.5c0.02,0,0.05-0.01,0.08-0.01c0.22,0,0.41,0.15,0.47,0.36
		c0.05,0.18,4.63,18.39-5.53,35.07c-2.91,4.78-5.61,8.59-8,11.94c-5.86,8.25-9.08,12.8-6.57,19.45c0.54,1.42,1.44,2.15,2.67,2.15
		c1.65,0,3.81-1.29,5.96-3.56c-3.06-6.93-5.77-16.83,4.45-24.11c0.08-0.06,0.18-0.09,0.28-0.09c0.12,0,0.23,0.04,0.32,0.12
		c0.17,0.15,0.21,0.4,0.1,0.6c-0.06,0.12-6.25,11.31-0.73,17.31c5.09-9.06,7.31-21,6.09-32.89c-0.03-0.26,0.16-0.49,0.41-0.53
		c0.02,0,0.05,0,0.07,0c0.23,0,0.43,0.16,0.48,0.39c0.17,0.91,4.09,22.2-1.49,35c3.2-2.3,3.72-13.24,4.15-22.19
		c0.27-5.65,0.52-10.99,1.36-14.15c2.62-9.95,12.78-18.17,13.21-18.51c0.09-0.07,0.2-0.11,0.3-0.11c0.13,0,0.25,0.05,0.35,0.15
		c0.17,0.18,0.18,0.46,0.02,0.65c-0.12,0.14-11.58,13.81-10.06,25.97c0.3,2.39,0.64,4.54,0.97,6.61c1.41,8.85,2.43,15.24-2.04,26.75
		c-5.26,13.52-2.34,15.8,3.46,20.34l0.29,0.23c0.88,0.69,1.85,1.04,2.9,1.04c1.79,0,3.68-1.04,5.32-2.93
		c3.96-4.57,5.57-12.56,4.31-21.39c-0.68-4.75-1.67-9.58-2.73-14.7c-2.93-14.23-5.97-28.95-1.68-41.6
		c2.42-7.15,5.83-11.26,9.13-15.23c4.54-5.47,8.83-10.63,9.88-23.26c0.02-0.24,0.21-0.43,0.45-0.44c0.01,0,0.02,0,0.03,0
		c0.23,0,0.42,0.16,0.47,0.38c0.03,0.13,2.82,13.38-5.28,26.7c-15.39,25.31-10.42,33.34-5.34,37.18c2.07,1.56,3.94,2.36,5.55,2.36
		c1.5,0,2.77-0.69,3.77-2.05c2.4-3.27,2.6-9.22,1.4-13.08l-0.09-0.28c-2.35-7.56-5.56-17.91,7.45-36.66
		c0.09-0.13,0.24-0.21,0.4-0.21c0.08,0,0.17,0.02,0.25,0.07c0.22,0.13,0.3,0.41,0.18,0.63c-0.07,0.14-7.17,14.3-3.36,25.71
		c5.75,17.24,3.34,25.42,0.23,31.16l-0.57,1.05c-5.06,9.29-12.71,23.34-4.52,29.36c2.28,1.68,4.1,2.53,5.39,2.53
		c0.65,0,1.16-0.22,1.56-0.66c1.49-1.65,1.22-6.07,0.89-9.26c-0.6-5.85,0.78-12.24,4.22-19.56c2.01-4.27,1.27-15.82,1.26-15.93
		c-0.02-0.24,0.15-0.46,0.39-0.51c0.03-0.01,0.06-0.01,0.09-0.01c0.21,0,0.39,0.13,0.46,0.33c0.03,0.09,2.88,9.1,1.32,19.78
		l-0.35,2.35c-1.45,9.66-2.82,18.79,2.5,22.49c1.74,1.21,3.67,1.85,5.59,1.85c2.04,0,3.85-0.73,5.08-2.06
		c1.21-1.3,1.76-3.06,1.61-5.1c-0.19-2.53-2.28-7.36-4.7-12.95c-4.2-9.68-9.42-21.73-8.08-29.42c0.67-3.84,2.01-6.25,3.2-8.38
		c2.61-4.69,4.67-8.39-1.35-24.49c-0.08-0.22,0-0.47,0.21-0.59c0.08-0.05,0.16-0.07,0.25-0.07c0.14,0,0.27,0.06,0.37,0.17
		c0.11,0.13,11.34,13.39,7.66,26.27c-3.82,13.4-4.6,17.38,2.83,20.01c0.57,0.2,1.14,0.3,1.72,0.3h0c2.3,0,4.59-1.6,6.46-4.5
		c3.15-4.9,4.73-13.4,1.65-20.18c-1.62-3.58-3.46-6.42-5.23-9.16c-3.85-5.97-7.49-11.61-7.85-23.36c-0.01-0.24,0.16-0.45,0.4-0.49
		c0.03,0,0.06-0.01,0.08-0.01c0.21,0,0.39,0.13,0.46,0.33c0.04,0.11,3.73,11.23,12.41,20.69c8.73,9.5,10.46,19.51,6.38,36.95
		c-3.14,13.4-8.97,38.34-1.91,47.85c1.81,2.44,4.04,3.73,6.44,3.73c4.9,0,9.9-5.55,9.9-11c0-3.57-1.44-7.88-3.11-12.88
		c-2.02-6.04-4.3-12.88-4.45-19.97c-0.07-3.63,0.6-6.69,1.25-9.65c1.61-7.36,3.13-14.3-8.18-28.4c-0.15-0.18-0.14-0.45,0.01-0.62
		c0.09-0.11,0.23-0.16,0.36-0.16c0.09,0,0.18,0.02,0.25,0.07c0.13,0.08,13.27,8.47,14.05,29.87c0.55,15.12,1.51,21.51,3.85,23.96
		c-1.35-4-1.44-7.38-1.53-11.22c-0.03-1.38-0.07-2.81-0.16-4.34c-0.2-3.3,0.11-5.64,0.38-7.72c0.13-1,0.26-1.95,0.3-2.87
		c0.01-0.24,0.2-0.44,0.45-0.46c0.01,0,0.03,0,0.04,0c0.23,0,0.43,0.16,0.47,0.38c1.08,5.15,2.42,12.2,2.72,16.6
		c0.22,3.16,1.33,6.99,2.98,10.35c1.76-1.17,3.09-3.62,3.47-6.41c0.31-2.32,0.19-6.81-4.12-10.85c-0.16-0.15-0.2-0.38-0.1-0.58
		c0.08-0.16,0.25-0.26,0.43-0.26c0.03,0,0.07,0,0.1,0.01c0.18,0.04,4.37,0.95,6.83,5.23c2.26,3.93,2.28,9.32,0.05,16
		c-0.44,1.31-0.89,2.57-1.39,3.86c1.36,1.07,2.74,1.66,4.11,1.77c0.2,0.02,0.39,0.02,0.58,0.02c2.19,0,3.94-1.02,4.92-2.87
		c1.64-3.08,0.84-7.81-2.03-12.05c-1.54-2.28-3.31-4.36-5.19-6.58c-4.72-5.57-10.08-11.88-13.65-23.55
		c-4.93-16.1-1.1-39.12-1.06-39.35c0.04-0.23,0.24-0.4,0.48-0.4c0.01,0,0.03,0,0.04,0c0.25,0.02,0.44,0.24,0.44,0.49
		c0,0.31-0.42,31.03,8,43.54c5.27,7.83,8.52,11.16,10.85,11.16c0.92,0,1.8-0.46,3.03-1.6c1.78-1.64-0.67-4.98-3.26-8.52
		c-1.7-2.32-3.45-4.72-4.18-6.88c-1.86-5.6,1.19-12.09,1.32-12.36c0.08-0.17,0.25-0.27,0.44-0.27c0.04,0,0.09,0.01,0.14,0.02
		c0.23,0.07,0.37,0.29,0.34,0.53c-0.01,0.08-0.92,7.96,5.88,15.26c7.56,8.12,14.2,17.15,11.59,28.09
		c-1.98,8.29-4.88,18.04-6.81,24.5c-0.63,2.12-1.17,3.92-1.55,5.26c-0.69,2.41-0.31,4.43,0.34,5.28c0.16,0.22,0.34,0.35,0.47,0.35
		c0.25,0,0.7-0.59,0.86-2.16c0.49-4.89,1.65-11.4,6.56-22.58c4.75-10.82,14.38-12.01,14.47-12.02c0.02,0,0.04,0,0.05,0
		c0.21,0,0.39,0.13,0.46,0.33c0.07,0.22-0.01,0.45-0.21,0.57c-0.14,0.08-13.61,8.45-14.38,27.51c-0.46,11.68,1.98,19.63,3.94,26.02
		c1.3,4.25,2.43,7.92,2.32,11.54c-0.27,9.22-8.21,9.59-8.29,9.6l-0.87,0.02l-3.84,11.19c-0.25,0.51-5.66,11.19-13.91,16.1
		c-7.61,4.54-18.81,4.77-20.98,4.77h-0.1c-4.57,1.92-9.5,2.89-14.67,2.89c-6.28,0-10.9-1.43-12.09-1.84
		C139.31,209.49,134.11,213.75,122.7,213.75z M182.89,121.12c-0.75,1.41-1.47,2.6-2.11,3.67c-2.75,4.6-4.4,7.38-3.94,17.65
		c0.4,8.89,4.72,12.05,8.63,12.05c3.72,0,7.07-2.68,7.62-6.11C193.94,143.16,190.32,133.49,182.89,121.12z M63.04,118.37
		c-0.62,0.92-1.24,1.83-1.86,2.74c-4.58,6.71-8.9,13.05-9.53,20.61c-0.33,3.95,0.51,7.23,2.36,9.24c1.17,1.27,2.7,1.97,4.31,1.97
		c2.43,0,4.76-1.56,6.25-4.18c4.85-8.57,4.95-18.72,0.26-27.17C64.52,121.01,63.32,118.88,63.04,118.37z"/>
	<path class="st1" d="M109.07,14.92c0,0,2.87,13.04-5.22,26.34c-8.09,13.3-15.91,29.73-5.22,37.82c2.29,1.73,4.23,2.46,5.84,2.46
		c5.94,0,7.48-9.81,5.63-15.76c-2.35-7.57-5.74-17.74,7.3-36.51c0,0-7.3,14.34-3.39,26.08c3.91,11.74,5.22,21.64,0.26,30.78
		c-4.96,9.13-13.82,24.52-4.96,31.04c2.51,1.84,4.35,2.62,5.68,2.62c3.38,0,3.49-5.02,2.93-10.45c-0.78-7.57,2.09-14.87,4.17-19.3
		c2.09-4.43,1.3-16.17,1.3-16.17s2.87,8.87,1.3,19.56c-1.56,10.7-3.65,21.13,2.35,25.3c1.9,1.32,3.96,1.94,5.86,1.94
		c4.11,0,7.53-2.86,7.18-7.68c-0.52-7.04-14.87-30.25-12.78-42.25c2.09-12,10.69-9.39,1.82-33.12c0,0,11.22,13.04,7.56,25.82
		c-3.65,12.78-4.95,17.74,3.13,20.6c0.63,0.22,1.26,0.33,1.88,0.33c7.31,0,13.36-14.79,8.55-25.37
		c-5.21-11.47-12.52-15.39-13.04-32.34c0,0,3.66,11.22,12.52,20.86c8.87,9.65,10.17,19.82,6.26,36.51
		c-3.91,16.69-8.61,39.12-1.82,48.25c2.07,2.79,4.48,3.92,6.83,3.92c5.35,0,10.38-5.87,10.38-11.49c0-8.08-7.3-20.08-7.56-32.86
		c-0.26-12.78,8.87-18.52-7.04-38.34c0,0,13.04,8.09,13.82,29.47c0.66,17.98,1.87,23.61,5.34,25.26c-2.46-6.1-1.82-10.61-2.21-16.91
		c-0.3-4.88,0.55-7.72,0.68-10.53c1.08,5.18,2.41,12.19,2.71,16.53c0.23,3.33,1.42,7.42,3.26,10.99c4.22-2.24,7.02-11.6-0.13-18.3
		c0,0,12.52,2.61,6.52,20.6c-0.51,1.54-1.02,2.91-1.52,4.16c1.44,1.2,3,1.97,4.65,2.1c0.21,0.02,0.42,0.02,0.62,0.02
		c6.32,0,8.6-7.84,3.3-15.67c-5.48-8.09-13.83-13.82-18.78-29.99c-4.96-16.17-1.05-39.12-1.05-39.12s-0.52,31.04,8.08,43.82
		c5.76,8.55,8.83,11.38,11.25,11.38c1.2,0,2.23-0.69,3.36-1.73c3.39-3.13-5.48-10.44-7.3-15.91c-1.82-5.47,1.3-12,1.3-12
		s-1.04,8.09,6,15.65c7.04,7.57,14.08,16.69,11.48,27.65c-2.62,10.95-6.79,24.26-8.35,29.73c-1.02,3.56,0.17,6.24,1.27,6.24
		c0.59,0,1.15-0.77,1.34-2.6c0.52-5.21,1.82-11.74,6.52-22.43c4.69-10.69,14.08-11.73,14.08-11.73s-13.82,8.34-14.61,27.91
		c-0.78,19.56,6.53,28.69,6.26,37.56c-0.26,8.87-7.82,9.13-7.82,9.13l-1.2,0.03l-3.95,11.51c0,0-5.48,10.95-13.7,15.84
		c-7.61,4.53-19.1,4.7-20.73,4.7c-0.13,0-0.2,0-0.2,0c-5.21,2.2-10.27,2.89-14.57,2.89c-7.17,0-12.22-1.91-12.22-1.91
		s-4.9,5.42-17.61,5.42c-12.72,0-17.8-5.81-17.8-5.81s-6.65,2.54-16.24,2.54c-9.58,0-15.84-4.89-15.84-4.89
		c-22.5-1.56-26.41-14.28-26.41-14.28l-8.54-19.43l-7.04-7.3c0,0-0.78-6.26,2.09-12.78c2.87-6.52,9.13-21.91,0.52-37.3
		c0,0,8.87,5.74,9.39,14.08c0.38,6.1,2.01,8.99,3.68,8.99c0.61,0,1.23-0.39,1.8-1.17c2.09-2.87-13.3-27.39-12-43.3
		c1.3-15.91,21.39-26.34,20.08-39.38c0,0,4.96,8.6-3.39,19.04c-7.55,9.43-3.37,12.9,0.2,12.9c0.38,0,0.75-0.04,1.1-0.11
		c3.65-0.78,17.22-19.82,16.17-38.6c0,0,4.7,18-5.48,34.69c-10.17,16.69-18.26,22.17-14.6,31.82c0.63,1.67,1.74,2.46,3.13,2.46
		c1.85,0,4.18-1.39,6.54-3.95c-3.61-8.06-5.24-17.12,4.16-23.81c0,0-6.83,12.14-0.21,18.34c4.47-7.68,7.92-19.55,6.47-33.73
		c0,0,4.17,22.17-1.56,34.95c-0.13,0.29-0.26,0.57-0.4,0.86c6.9-0.97,4.56-28.14,6.92-37.11c2.61-9.91,13.04-18.26,13.04-18.26
		S76.73,66.56,78.29,79.08c1.56,12.52,4.43,19.04-1.04,33.12c-5.48,14.08-2.09,16.43,3.91,21.13c0.98,0.77,2.07,1.14,3.2,1.14
		c5.72,0,12.29-9.61,10.1-24.87c-2.61-18.26-10.17-39.12-4.43-56.08C95.77,36.56,107.24,36.83,109.07,14.92 M58.32,153.41
		c2.45,0,4.99-1.47,6.67-4.43c4.43-7.82,5.48-18.26,0.26-27.65c-0.67-1.21-1.42-2.51-2.17-3.88c-5.35,8.06-11.16,15.28-11.91,24.23
		C50.52,149.45,54.3,153.41,58.32,153.41 M185.47,154.98c3.81,0,7.49-2.71,8.1-6.52c1.09-6.75-4.91-18.77-10.71-28.32
		c-4.14,8.02-7.1,9.05-6.5,22.33C176.77,151.56,181.2,154.98,185.47,154.98 M223.05,100.21L223.05,100.21 M109.07,13.95
		c-0.02,0-0.04,0-0.07,0c-0.48,0.03-0.86,0.41-0.9,0.89c-1.04,12.48-5.28,17.58-9.77,22.99c-3.21,3.86-6.52,7.85-8.95,14.61
		c-0.04-0.14-0.12-0.26-0.23-0.37c-0.19-0.19-0.44-0.29-0.69-0.29c-0.21,0-0.43,0.07-0.6,0.21c-0.44,0.35-10.71,8.66-13.37,18.77
		c-0.84,3.21-1.1,8.57-1.37,14.25c-0.06,1.35-0.13,2.76-0.21,4.21c0-1.38-0.03-2.8-0.1-4.27c-0.33-7.13-1.37-12.76-1.39-12.82
		c-0.09-0.46-0.49-0.79-0.95-0.79c-0.01,0-0.02,0-0.03,0c3.99-13.11,1.12-24.5,0.96-25.1c-0.11-0.43-0.5-0.72-0.94-0.72
		c-0.05,0-0.1,0-0.15,0.01c-0.49,0.08-0.84,0.51-0.82,1.01c1.06,19.01-12.72,37.03-15.41,37.6c-0.29,0.06-0.59,0.09-0.9,0.09
		c-1.13,0-2.55-0.44-3.15-1.69c-0.56-1.17-0.83-3.97,3.7-9.63c4.5-5.63,5.22-10.77,5.04-14.09c-0.21-3.64-1.51-5.94-1.56-6.03
		c-0.18-0.31-0.5-0.48-0.84-0.48c-0.1,0-0.2,0.02-0.3,0.05c-0.43,0.14-0.71,0.56-0.67,1.02c0.62,6.17-4.03,11.93-8.95,18.03
		c-5.14,6.38-10.46,12.98-11.14,21.18c-0.81,9.92,4.59,22.83,8.54,32.26c1.89,4.5,4.02,9.6,3.62,10.58c-0.34,0.46-0.71,0.74-1,0.74
		c-0.72,0-2.33-1.98-2.71-8.09c-0.55-8.73-9.45-14.59-9.83-14.84c-0.16-0.1-0.34-0.16-0.53-0.16c-0.24,0-0.48,0.09-0.66,0.26
		c-0.32,0.3-0.4,0.79-0.18,1.18c8.66,15.48,1.72,31.25-0.56,36.44c-2.94,6.69-2.2,13.02-2.16,13.29c0.03,0.21,0.12,0.4,0.26,0.55
		l6.92,7.18l8.46,19.23c0.36,1.08,4.86,13.25,26.96,14.88c1.28,0.92,7.34,4.91,16.19,4.91c8.12,0,14.12-1.77,15.98-2.4
		c1.57,1.45,7.06,5.66,18.05,5.66c10.95,0,16.31-3.91,17.85-5.28c1.55,0.51,6.03,1.77,11.98,1.77c5.2,0,10.16-0.97,14.77-2.89l0,0
		c2.19,0,13.5-0.23,21.23-4.84c8.37-4.98,13.84-15.78,14.07-16.24c0.02-0.04,0.04-0.08,0.05-0.12l3.73-10.87l0.53-0.01
		c0.1,0,8.48-0.4,8.76-10.07c0.11-3.7-1.03-7.4-2.35-11.69c-1.95-6.35-4.38-14.26-3.92-25.86c0.74-18.46,13.57-26.76,14.13-27.11
		c0.29-0.17,0.49-0.48,0.49-0.84c0-0.53-0.43-0.96-0.96-0.97c0,0-0.01,0-0.01,0c-0.02,0-0.04,0-0.05,0c-0.02,0-0.05,0-0.07,0.01
		c-0.6,0.07-10.04,1.35-14.85,12.3c-4.93,11.24-6.1,17.8-6.6,22.72c-0.1,0.98-0.3,1.44-0.42,1.64c-0.42-0.46-1.06-2.26-0.3-4.92
		c0.38-1.33,0.92-3.13,1.54-5.24c1.92-6.46,4.83-16.23,6.82-24.53c2.65-11.17-4.06-20.31-11.71-28.53
		c-6.63-7.11-5.76-14.79-5.75-14.87c0.06-0.47-0.23-0.92-0.69-1.05c-0.09-0.03-0.18-0.04-0.27-0.04c-0.36,0-0.71,0.21-0.87,0.55
		c-0.13,0.28-3.27,6.94-1.35,12.72c0.75,2.24,2.53,4.67,4.24,7.02c2.35,3.21,4.78,6.53,3.32,7.88c-1.13,1.04-1.92,1.47-2.7,1.47
		c-2.13,0-5.35-3.38-10.45-10.95c-8.34-12.39-7.92-42.95-7.92-43.26c0.01-0.51-0.37-0.93-0.88-0.98c-0.03,0-0.06,0-0.09,0
		c-0.47,0-0.87,0.34-0.95,0.81c-0.01,0.06-0.99,5.89-1.35,13.61c-0.33,7.16-0.18,17.47,2.42,25.95c2.7,8.82,6.4,14.59,10.09,19.29
		c-1.91-1.34-3.64-1.72-3.75-1.74c-0.07-0.01-0.13-0.02-0.2-0.02c-0.36,0-0.69,0.2-0.86,0.52c-0.2,0.38-0.12,0.86,0.2,1.15
		c4.15,3.89,4.27,8.21,3.98,10.43c-0.32,2.37-1.4,4.53-2.81,5.73c-1.48-3.17-2.47-6.7-2.67-9.64c-0.3-4.42-1.65-11.5-2.73-16.66
		c-0.09-0.45-0.49-0.77-0.95-0.77c-0.03,0-0.05,0-0.08,0c-0.49,0.04-0.87,0.43-0.89,0.92c-0.04,0.9-0.17,1.84-0.3,2.83
		c-0.28,2.09-0.59,4.47-0.38,7.81c0.1,1.52,0.13,2.95,0.16,4.32c0.05,2.27,0.11,4.37,0.41,6.54c-0.91-3.74-1.42-9.79-1.77-19.3
		c-0.79-21.65-13.72-29.92-14.28-30.26c-0.16-0.1-0.33-0.15-0.51-0.15c-0.27,0-0.54,0.11-0.72,0.33c-0.31,0.35-0.33,0.88-0.03,1.25
		c11.17,13.91,9.74,20.44,8.08,27.99c-0.65,2.99-1.33,6.07-1.26,9.76c0.15,7.17,2.45,14.05,4.47,20.12
		c1.66,4.96,3.09,9.24,3.09,12.73c0,5.21-4.75,10.52-9.41,10.52c-2.25,0-4.34-1.22-6.05-3.53c-6.93-9.33-1.13-34.13,1.99-47.45
		c4.13-17.62,2.37-27.75-6.49-37.39c-8.61-9.37-12.27-20.4-12.31-20.51c-0.13-0.4-0.51-0.67-0.92-0.67c-0.06,0-0.11,0-0.17,0.01
		c-0.47,0.08-0.82,0.5-0.8,0.98c0.37,11.89,4.04,17.58,7.93,23.61c1.76,2.73,3.58,5.55,5.19,9.1c3.01,6.62,1.47,14.93-1.61,19.72
		c-1.78,2.76-3.93,4.28-6.05,4.28c-0.52,0-1.04-0.09-1.56-0.28c-7.04-2.5-6.34-6.09-2.53-19.43c3.76-13.13-7.28-26.17-7.76-26.72
		c-0.19-0.22-0.46-0.34-0.73-0.34c-0.17,0-0.34,0.04-0.49,0.13c-0.4,0.24-0.58,0.73-0.41,1.17c5.94,15.89,3.92,19.5,1.38,24.08
		c-1.2,2.16-2.57,4.62-3.25,8.54c-1.36,7.83,3.89,19.96,8.11,29.7c2.4,5.55,4.48,10.34,4.66,12.79c0.14,1.9-0.37,3.54-1.48,4.73
		c-1.14,1.23-2.82,1.9-4.73,1.9c-1.82,0-3.65-0.61-5.31-1.76c-5.07-3.52-3.72-12.51-2.29-22.02c0.12-0.78,0.23-1.56,0.35-2.34
		c1.58-10.79-1.22-19.63-1.34-20c-0.13-0.41-0.51-0.67-0.92-0.67c-0.06,0-0.12,0.01-0.18,0.02c-0.48,0.09-0.82,0.53-0.78,1.01
		c0.01,0.11,0.74,11.54-1.21,15.69c-3.48,7.4-4.87,13.88-4.26,19.82c0.18,1.78,0.74,7.2-0.77,8.88c-0.31,0.34-0.69,0.5-1.2,0.5
		c-0.82,0-2.37-0.42-5.11-2.44c-7.86-5.77-0.32-19.6,4.66-28.74l0.57-1.05c5.64-10.38,3.06-21.77-0.19-31.54
		c-3.74-11.21,3.26-25.2,3.34-25.34c0.23-0.45,0.07-1.01-0.37-1.27c-0.16-0.09-0.33-0.14-0.5-0.14c-0.31,0-0.61,0.15-0.8,0.42
		c-13.15,18.94-9.9,29.42-7.52,37.07l0.09,0.28c1.31,4.21,0.71,9.88-1.33,12.65c-0.91,1.23-2.04,1.85-3.38,1.85
		c-1.51,0-3.28-0.76-5.26-2.26c-10.29-7.78-1.81-24.58,5.46-36.54c8.19-13.48,5.45-26.5,5.33-27.05
		C109.92,14.27,109.52,13.95,109.07,13.95L109.07,13.95z M84.36,133.5c-0.93,0-1.81-0.31-2.6-0.93l-0.29-0.23
		c-5.62-4.39-8.44-6.6-3.31-19.78c4.52-11.63,3.44-18.41,2.07-27c-0.33-2.07-0.67-4.21-0.97-6.59c-1.37-10.98,8.09-23.29,9.72-25.31
		c-4.11,12.67-1.1,27.28,1.81,41.41c1.05,5.11,2.05,9.93,2.72,14.67c1.84,12.88-2.75,19.33-4.2,21
		C87.76,132.52,86,133.5,84.36,133.5L84.36,133.5z M60.98,89.11c1.53-2.22,3.15-4.67,4.84-7.45c1.61-2.64,2.85-5.3,3.81-7.92
		c0.89,11.07-1.2,22.09-5.82,30.64c-4.49-5.85,1.18-16.12,1.24-16.23c0.22-0.39,0.14-0.89-0.2-1.19c-0.18-0.16-0.41-0.25-0.65-0.25
		c-0.2,0-0.39,0.06-0.56,0.18C62.64,87.61,61.75,88.35,60.98,89.11L60.98,89.11z M53.51,114.48c-1.03,0-1.76-0.6-2.22-1.83
		c-2.38-6.28,0.62-10.69,6.15-18.49c-2.57,5.88-0.68,12.21,1.46,17.14C56.92,113.32,54.98,114.48,53.51,114.48L53.51,114.48z
		 M186.44,114.48c0.45-1.17,0.87-2.33,1.27-3.54c2.09-6.26,2.23-11.43,0.43-15.37c1.77,2.09,3.44,4.08,4.9,6.22
		c2.77,4.09,3.55,8.62,2,11.55c-0.89,1.69-2.49,2.61-4.49,2.61c-0.18,0-0.36-0.01-0.54-0.02
		C188.82,115.84,187.63,115.35,186.44,114.48L186.44,114.48z M58.32,152.44c-1.48,0-2.88-0.64-3.96-1.81
		c-1.76-1.91-2.55-5.06-2.23-8.87c0.62-7.42,4.91-13.71,9.45-20.37c0.47-0.69,0.95-1.39,1.42-2.09c0.15,0.26,0.29,0.52,0.44,0.78
		c0.33,0.59,0.66,1.17,0.97,1.72c4.61,8.3,4.51,18.28-0.26,26.7C62.75,150.97,60.57,152.44,58.32,152.44L58.32,152.44z
		 M185.47,154.01c-5.62,0-7.89-5.99-8.14-11.59c-0.46-10.12,1.17-12.85,3.87-17.37c0.53-0.88,1.1-1.85,1.71-2.95
		c7.08,11.93,10.52,21.2,9.71,26.21C192.1,151.5,188.96,154.01,185.47,154.01L185.47,154.01z"/>
</g>
<path class="st2" d="M172.97,74.12c0,0,0.66,2.84,1.46,6.68C174.53,78.81,174.27,76.83,172.97,74.12"/>
<path class="st3" d="M172.97,74.12c0,0,0.66,2.84,1.46,6.68C174.53,78.81,174.27,76.83,172.97,74.12z"/>
<path class="st2" d="M223.05,100.21c0,0-9.39,1.04-14.08,11.73c-4.69,10.7-6,17.22-6.52,22.43c-0.52,5.22-4.17,1.83-2.61-3.65
	c1.56-5.48,5.73-18.78,8.35-29.73c2.6-10.95-4.44-20.08-11.48-27.65c-7.05-7.56-6-15.65-6-15.65s-3.12,6.52-1.3,12
	c1.83,5.48,10.69,12.78,7.3,15.91c-3.39,3.13-6,3.13-14.61-9.65c-8.6-12.78-8.08-43.82-8.08-43.82s-3.91,22.95,1.05,39.12
	c4.95,16.17,13.3,21.91,18.78,29.99c5.47,8.09,2.87,16.17-3.91,15.65c-1.64-0.13-3.21-0.9-4.65-2.1c0.5-1.25,1-2.62,1.52-4.16
	c6-17.99-6.52-20.6-6.52-20.6c7.14,6.69,4.35,16.06,0.13,18.3c-1.84-3.58-3.03-7.67-3.26-10.99c-0.3-4.35-1.63-11.35-2.71-16.53
	c-0.13,2.82-0.98,5.65-0.68,10.53c0.4,6.3-0.25,10.81,2.21,16.91c-3.47-1.64-4.69-7.27-5.34-25.26
	c-0.78-21.39-13.82-29.47-13.82-29.47c15.91,19.82,6.78,25.56,7.04,38.34c0.26,12.78,7.56,24.78,7.56,32.86
	c0,8.09-10.43,16.7-17.21,7.57c-6.78-9.13-2.08-31.56,1.82-48.25c3.91-16.69,2.61-26.87-6.26-36.51
	c-8.86-9.65-12.52-20.86-12.52-20.86c0.52,16.95,7.83,20.86,13.04,32.34c5.22,11.48-2.35,27.91-10.43,25.04
	c-8.08-2.87-6.78-7.82-3.13-20.6c3.66-12.78-7.56-25.82-7.56-25.82c8.87,23.73,0.26,21.13-1.82,33.12
	c-2.09,12,12.26,35.21,12.78,42.25c0.52,7.04-7.05,9.91-13.04,5.74c-6-4.17-3.91-14.6-2.35-25.3c1.56-10.69-1.3-19.56-1.3-19.56
	s0.78,11.74-1.3,16.17c-2.09,4.44-4.96,11.74-4.17,19.3c0.78,7.56,0.26,14.35-8.61,7.82c-8.87-6.52,0-21.91,4.96-31.04
	c4.96-9.13,3.65-19.04-0.26-30.78c-3.91-11.74,3.39-26.08,3.39-26.08c-13.04,18.78-9.65,28.95-7.3,36.51
	c2.35,7.56-0.78,21.39-11.48,13.3c-10.69-8.09-2.87-24.52,5.22-37.82c8.08-13.3,5.22-26.34,5.22-26.34
	c-1.82,21.91-13.3,21.64-19.04,38.6c-5.74,16.95,1.82,37.82,4.43,56.08c2.61,18.26-7.3,28.43-13.3,23.73
	c-6-4.69-9.39-7.04-3.91-21.13c5.48-14.08,2.61-20.61,1.04-33.12c-1.56-12.52,10.17-26.34,10.17-26.34s-10.43,8.35-13.04,18.26
	c-2.36,8.97-0.02,36.14-6.92,37.11c0.13-0.29,0.27-0.57,0.4-0.86c5.74-12.78,1.56-34.95,1.56-34.95
	c1.46,14.18-1.99,26.06-6.47,33.73c-6.62-6.21,0.21-18.34,0.21-18.34c-9.39,6.69-7.77,15.75-4.16,23.81
	c-4.12,4.48-8.19,5.39-9.66,1.49c-3.65-9.65,4.43-15.13,14.6-31.82c10.17-16.69,5.48-34.69,5.48-34.69
	c1.05,18.78-12.52,37.82-16.17,38.6c-3.65,0.78-9.65-2.35-1.3-12.78s3.39-19.04,3.39-19.04c1.3,13.04-18.78,23.47-20.08,39.38
	c-1.3,15.91,14.08,40.43,12,43.3c-2.09,2.87-4.96,0.52-5.48-7.83c-0.52-8.35-9.39-14.08-9.39-14.08c8.61,15.39,2.35,30.78-0.52,37.3
	c-2.87,6.52-2.09,12.78-2.09,12.78l7.04,7.3l93.38-1.3l53.2,5.22l22.44-0.52c0,0,7.56-0.26,7.82-9.13c0.26-8.87-7.04-18-6.26-37.56
	C209.22,108.55,223.05,100.21,223.05,100.21 M64.99,148.98c-4.43,7.83-14.87,5.22-13.82-7.3c0.74-8.95,6.56-16.17,11.91-24.23
	c0.76,1.37,1.5,2.67,2.17,3.88C70.47,130.72,69.42,141.15,64.99,148.98 M193.57,148.46c-1.3,8.08-16.43,11.21-17.21-6
	c-0.6-13.27,2.36-14.31,6.5-22.33C188.66,129.69,194.66,141.71,193.57,148.46"/>
<path class="st3" d="M223.05,100.21c0,0-9.39,1.04-14.08,11.73c-4.69,10.7-6,17.22-6.52,22.43c-0.52,5.22-4.17,1.83-2.61-3.65
	c1.56-5.48,5.73-18.78,8.35-29.73c2.6-10.95-4.44-20.08-11.48-27.65c-7.05-7.56-6-15.65-6-15.65s-3.12,6.52-1.3,12
	c1.83,5.48,10.69,12.78,7.3,15.91c-3.39,3.13-6,3.13-14.61-9.65c-8.6-12.78-8.08-43.82-8.08-43.82s-3.91,22.95,1.05,39.12
	c4.95,16.17,13.3,21.91,18.78,29.99c5.47,8.09,2.87,16.17-3.91,15.65c-1.64-0.13-3.21-0.9-4.65-2.1c0.5-1.25,1-2.62,1.52-4.16
	c6-17.99-6.52-20.6-6.52-20.6c7.14,6.69,4.35,16.06,0.13,18.3c-1.84-3.58-3.03-7.67-3.26-10.99c-0.3-4.35-1.63-11.35-2.71-16.53
	c-0.13,2.82-0.98,5.65-0.68,10.53c0.4,6.3-0.25,10.81,2.21,16.91c-3.47-1.64-4.69-7.27-5.34-25.26
	c-0.78-21.39-13.82-29.47-13.82-29.47c15.91,19.82,6.78,25.56,7.04,38.34c0.26,12.78,7.56,24.78,7.56,32.86
	c0,8.09-10.43,16.7-17.21,7.57c-6.78-9.13-2.08-31.56,1.82-48.25c3.91-16.69,2.61-26.87-6.26-36.51
	c-8.86-9.65-12.52-20.86-12.52-20.86c0.52,16.95,7.83,20.86,13.04,32.34c5.22,11.48-2.35,27.91-10.43,25.04
	c-8.08-2.87-6.78-7.82-3.13-20.6c3.66-12.78-7.56-25.82-7.56-25.82c8.87,23.73,0.26,21.13-1.82,33.12
	c-2.09,12,12.26,35.21,12.78,42.25c0.52,7.04-7.05,9.91-13.04,5.74c-6-4.17-3.91-14.6-2.35-25.3c1.56-10.69-1.3-19.56-1.3-19.56
	s0.78,11.74-1.3,16.17c-2.09,4.44-4.96,11.74-4.17,19.3c0.78,7.56,0.26,14.35-8.61,7.82c-8.87-6.52,0-21.91,4.96-31.04
	c4.96-9.13,3.65-19.04-0.26-30.78c-3.91-11.74,3.39-26.08,3.39-26.08c-13.04,18.78-9.65,28.95-7.3,36.51
	c2.35,7.56-0.78,21.39-11.48,13.3c-10.69-8.09-2.87-24.52,5.22-37.82c8.08-13.3,5.22-26.34,5.22-26.34
	c-1.82,21.91-13.3,21.64-19.04,38.6c-5.74,16.95,1.82,37.82,4.43,56.08c2.61,18.26-7.3,28.43-13.3,23.73
	c-6-4.69-9.39-7.04-3.91-21.13c5.48-14.08,2.61-20.61,1.04-33.12c-1.56-12.52,10.17-26.34,10.17-26.34s-10.43,8.35-13.04,18.26
	c-2.36,8.97-0.02,36.14-6.92,37.11c0.13-0.29,0.27-0.57,0.4-0.86c5.74-12.78,1.56-34.95,1.56-34.95
	c1.46,14.18-1.99,26.06-6.47,33.73c-6.62-6.21,0.21-18.34,0.21-18.34c-9.39,6.69-7.77,15.75-4.16,23.81
	c-4.12,4.48-8.19,5.39-9.66,1.49c-3.65-9.65,4.43-15.13,14.6-31.82c10.17-16.69,5.48-34.69,5.48-34.69
	c1.05,18.78-12.52,37.82-16.17,38.6c-3.65,0.78-9.65-2.35-1.3-12.78s3.39-19.04,3.39-19.04c1.3,13.04-18.78,23.47-20.08,39.38
	c-1.3,15.91,14.08,40.43,12,43.3c-2.09,2.87-4.96,0.52-5.48-7.83c-0.52-8.35-9.39-14.08-9.39-14.08c8.61,15.39,2.35,30.78-0.52,37.3
	c-2.87,6.52-2.09,12.78-2.09,12.78l7.04,7.3l93.38-1.3l53.2,5.22l22.44-0.52c0,0,7.56-0.26,7.82-9.13c0.26-8.87-7.04-18-6.26-37.56
	C209.22,108.55,223.05,100.21,223.05,100.21z M64.99,148.98c-4.43,7.83-14.87,5.22-13.82-7.3c0.74-8.95,6.56-16.17,11.91-24.23
	c0.76,1.37,1.5,2.67,2.17,3.88C70.47,130.72,69.42,141.15,64.99,148.98z M193.57,148.46c-1.3,8.08-16.43,11.21-17.21-6
	c-0.6-13.27,2.36-14.31,6.5-22.33C188.66,129.69,194.66,141.71,193.57,148.46z"/>
<path class="st2" d="M46.41,190.84c0,0,3.91,12.72,26.41,14.28c0,0,6.26,4.89,15.84,4.89c9.58,0,16.24-2.54,16.24-2.54
	s5.09,5.81,17.8,5.81c12.71,0,17.61-5.42,17.61-5.42s12.91,4.89,26.79-0.97c0,0,12.72,0.19,20.93-4.7
	c8.22-4.89,13.7-15.84,13.7-15.84l4.5-13.1l-5.08-3.91L88.27,170.1l-36.97,9L46.41,190.84z"/>
<path class="st3" d="M46.41,190.84c0,0,3.91,12.72,26.41,14.28c0,0,6.26,4.89,15.84,4.89c9.58,0,16.24-2.54,16.24-2.54
	s5.09,5.81,17.8,5.81c12.71,0,17.61-5.42,17.61-5.42s12.91,4.89,26.79-0.97c0,0,12.72,0.19,20.93-4.7
	c8.22-4.89,13.7-15.84,13.7-15.84l4.5-13.1l-5.08-3.91L88.27,170.1l-36.97,9L46.41,190.84z"/>
<path class="st4" d="M90.71,190.84c0,0,2.05,2.93,7.92,3.72c5.87,0.78,13.01-0.29,17.99,2.54c4.99,2.84,4.01,4.3,3.33,5.18
	c-0.68,0.88-4.6,3.13-10.17,2.25c-5.57-0.88-7.04-1.76-14.77-1.86c-7.73-0.1-19.46-1.37-23.87-7.92c0,0,8.8,5.87,16.04,5.87
	c7.24,0,7.34-3.03-0.39-3.91c0,0,6.65-0.59,11.15,1.86c4.5,2.45,12.42,3.81,12.72,1.37c0.29-2.44-6.95-3.03-10.76-3.33
	C96.09,196.32,92.08,195.33,90.71,190.84"/>
<path class="st4" d="M61.37,191.03c0,0-0.39,4.8-3.13,4.8c-2.74,0-6.26-5.28-6.26-5.28L61.37,191.03z"/>
<path class="st4" d="M49.99,163.97c0,0-3.26-3.65-0.65-15.26c0,0-0.52,10.04,3.91,15.26H49.99z"/>
<path class="st4" d="M45.82,164.11c0,0-7.17-13.82-1.44-19.04c0,0-9.39,1.82-2.87,18.78L45.82,164.11z"/>
<path class="st4" d="M60.17,164.23l-2.48-4.3c0,0,3.78,3.26,5.61,4.17L60.17,164.23z"/>
<path class="st4" d="M65.77,163.84c0,0-1.04-3.78,1.44-7.95c0,0,0.13,5.21,1.7,8.22L65.77,163.84z"/>
<path class="st4" d="M81.68,163.84c0,0-0.52-0.78-2.09-4.04c-1.56-3.26-4.56-9.52-3.13-14.22c1.44-4.69,3.91-9.39,3.91-9.39
	s-1.18,5.08-1.7,7.3c-0.52,2.22-0.39,10.82,3,12.39c3.39,1.56,3.65-4.57,2.22-7.17c0,0,3.39,3.52,3.13,8.47
	c-0.26,4.96-1.69,6.52-1.69,6.52L81.68,163.84z"/>
<path class="st4" d="M91.07,163.84c0,0-3-7.69,3.52-11.34c0,0-4.31,6.39,0.52,11.34H91.07z"/>
<path class="st4" d="M103.72,99.03c0,0-3,6.39-2.09,11.35c0.92,4.96,5.09,9.78,5.87,16.3c0.78,6.52-1.82,14.6-0.52,16.43
	c1.31,1.82,6.13-3.79,5.35-15.13c0,0,2.74,2.22,1.56,8.87c-1.17,6.65-6.13,13.43-2.35,17.86c3.78,4.44,6.26-3,5.74-6.13
	c-0.52-3.13,0.39-9.78,4.04-12.26c0,0-2.21,4.04-1.17,8.48c1.05,4.43,0.39,10.56-1.82,13.3c-2.22,2.74-4.43,5.09-9.39,2.09
	c-4.95-3-9.13-6.91-7.04-17.48c2.09-10.56,3.65-12.91,0.26-20.74C98.77,114.16,96.42,107.51,103.72,99.03"/>
<path class="st4" d="M155.86,190.84c0,0-2.06,2.93-7.93,3.72c-5.87,0.78-13-0.29-17.99,2.54c-4.99,2.84-4.01,4.3-3.33,5.18
	c0.69,0.88,4.6,3.13,10.17,2.25c5.57-0.88,7.04-1.76,14.77-1.86c7.73-0.1,19.46-1.37,23.86-7.92c0,0-8.8,5.87-16.04,5.87
	c-7.24,0-7.34-3.03,0.4-3.91c0,0-6.66-0.59-11.15,1.86c-4.5,2.45-12.42,3.81-12.72,1.37c-0.29-2.44,6.94-3.03,10.76-3.33
	C150.48,196.32,154.48,195.33,155.86,190.84"/>
<path class="st4" d="M179.71,191.03c0,0,0.39,4.8,3.13,4.8c2.74,0,6.26-5.28,6.26-5.28L179.71,191.03z"/>
<path class="st4" d="M199.18,164.11c0,0,7.17-13.82,1.44-19.04c0,0,9.38,1.82,2.86,18.78L199.18,164.11z"/>
<path class="st4" d="M190.19,165.41c0,0,1.05-3.78-1.43-7.95c0,0-0.13,5.21-1.69,8.22L190.19,165.41z"/>
<path class="st4" d="M167.24,163.84c0,0,0.52-0.78,2.08-4.04c1.57-3.26,4.57-9.52,3.13-14.22c-1.44-4.69-3.91-9.39-3.91-9.39
	s1.18,5.08,1.69,7.3c0.52,2.22,0.39,10.82-3,12.39c-3.39,1.56-3.66-4.57-2.22-7.17c0,0-3.39,3.52-3.13,8.47
	c0.26,4.96,1.69,6.52,1.69,6.52L167.24,163.84z"/>
<path class="st4" d="M157.84,163.84c0,0,3-7.69-3.52-11.34c0,0,4.31,6.39-0.53,11.34H157.84z"/>
<path class="st4" d="M121.85,113.64c0,0-0.78,7.3,1.83,12.26c2.61,4.96,6,8.86,6.26,14.35c0.26,5.48-1.17,13.69,2.08,15.13
	c3.27,1.43,5.22-5.22,4.7-8.48c-0.52-3.26-4.43-10.56,1.44-16.04c0,0-2.48,8.08,1.3,8.74c3.78,0.65,5.08-6.65,4.69-13.43
	c-0.39-6.78,1.18-18.91,4.43-22.95c0,0-2.48,7.69-1.56,15.91c0.91,8.22,2.35,21.39-5.48,27.39c0,0-0.52,14.34-9.78,14.34
	c-9.26,0-4.17-19.95-5.61-22.95C124.72,134.89,118.46,124.72,121.85,113.64"/>

<path class="st1" d="M232.53,163.36c5.9,0,9.82,3.21,10,8.16l0.08,2.32l-3.69,1.03c1.52,1.92,1.89,4.53,0.99,7.37
	c-2.06,6.47-8.93,9.37-14.83,9.37c-3.67,0-6.6-1.06-8.47-3.06c-1.11-1.19-2.38-3.32-2.15-6.71l0.15-2.31l4.23-0.72
	c-0.6-1.03-0.88-2.17-0.88-3.41l-4.5,5.23l-3.38,10.66h-12.64l3.87-12.2l-1.29-4.88l-2.3,7.26c-0.82,2.59-2,5.54-5.57,7.83
	c-2.49,1.55-5.29,2.3-8.6,2.3c-1.5,0-5.25-0.22-7.66-2.24c-0.27-0.22-0.5-0.45-0.72-0.68l-0.82,2.6h-8.16l-0.03-0.35
	c-1.31,0.43-2.7,0.67-4.12,0.67c-4.52,0-6.92-1.99-8.14-3.66c-1.9-2.6-2.28-6.28-1.11-10.4l-2.64,3.07l-3.38,10.66h-12.65l3.88-12.2
	l-1.2-4.52h-1.44l-1.79,5.63h1.87l-3.52,11.09h-19.69h-2.79h-7.01l-1.63-5.49l-1.74,5.49h-9.09h-2.51h-24.5h-2.79h-7.18h-2.92H28.36
	l0.81-2.57c-2.55,1.83-5.6,2.89-8.77,2.89c-4.7,0-7.16-2.01-8.4-3.7c-1.98-2.7-2.3-6.62-0.9-11.03c2.64-8.34,8.89-13.52,16.29-13.52
	c4.41,0,6.74,1.76,7.91,3.25c0.2,0.25,0.4,0.55,0.6,0.88l1.2-3.8h21.69h2.92h7.18h2.79h11.16l-0.12,2.56l1.47-2.56h11.99h2.51h8.18
	l1.17,4.14l1.31-4.14h8.81h2.79h12.91h6.78h6.75l0.75,3.53l2.91-3.53h13.63l-0.55,0.63c1.74-0.63,3.6-0.95,5.66-0.95
	c3.49,0,6.15,1.02,7.91,3.02c0.18,0.2,0.36,0.44,0.53,0.7l1.08-3.39h17.86h6.14h7.38l0.76,3.53l2.92-3.53h13.63l-0.26,0.3
	C229.28,163.57,230.87,163.36,232.53,163.36 M232.53,159.49c-1.28,0-2.54,0.11-3.77,0.32h-0.71h-13.63h-0.55h-3.13h-7.38h-6.14
	h-17.86h-2.83l-0.28,0.88c-1.68-0.71-3.79-1.2-6.42-1.2c-1.31,0-2.56,0.11-3.76,0.32h-1.35h-13.63h-0.53h-3.13h-6.75h-6.78h-12.91
	h-2.79h-8.36h-2.93h-8.18h-2.51h-9.29h-4.06H71.7h-2.79h-7.18h-2.92H37.12h-2.83l-0.31,0.98c-1.7-0.78-3.86-1.31-6.56-1.31
	c-9.15,0-16.81,6.22-19.98,16.22c-1.78,5.62-1.26,10.76,1.46,14.49c1.44,1.97,4.86,5.28,11.52,5.28c1.14,0,2.28-0.11,3.4-0.32h4.56
	h21.69h2.92h7.18h2.79h24.5h2.51h9.09h2.83h0.54h7.01h2.79h19.69h2.83h12.02h2.83l0.86-2.7l0.59-1.87c2.48,3.15,6.37,4.89,11,4.89
	c1.09,0,2.18-0.11,3.25-0.32h0.89h8.16h2.83l0.2-0.64c2.33,0.8,4.67,0.96,6.17,0.96c3.42,0,6.43-0.67,9.16-2.05l-0.55,1.73h5.29
	h12.64h2.83l0.86-2.7l0.31-0.96c2.63,2.61,6.42,3.98,11,3.98c7.3,0,15.86-3.73,18.51-12.07c0.65-2.05,0.81-4.08,0.51-5.97l2.47-0.69
	l-0.11-3.05l-0.08-2.32c-0.21-5.92-4.11-10.23-10.04-11.51l0.06-0.07H236C234.91,159.6,233.75,159.49,232.53,159.49L232.53,159.49z"
	/>
<path class="st1" d="M32.05,180.43c-2,5-6.67,8.23-11.67,8.23c-6.52,0-8.44-4.72-6.49-10.89c1.99-6.27,6.65-11.47,13.49-11.47
	c5.54,0,7.66,3.3,6.39,8.71l-6.31,0.32c0.65-1.84,0.68-4.15-1.56-4.15c-2.94,0-4.51,4.53-5.16,6.59c-0.69,2.19-1.74,5.89,1.27,5.89
	c2.06,0,3.42-1.8,4.09-3.61L32.05,180.43z"/>
<polygon class="st1" points="50.79,188.34 44.14,188.34 46.82,179.89 41.69,179.89 39.01,188.34 32.36,188.34 39.25,166.62 
	45.9,166.62 43.36,174.63 48.49,174.63 51.03,166.62 57.68,166.62 "/>
<polygon class="st1" points="60.76,188.34 54.05,188.34 60.94,166.62 67.65,166.62 "/>
<polygon class="st1" points="87.77,188.34 81.56,188.34 86.49,172.83 86.43,172.83 77.54,188.34 73.3,188.34 74.14,172.83 
	74.07,172.83 69.15,188.34 64.15,188.34 71.04,166.62 79.75,166.62 79.19,178.15 79.26,178.15 85.89,166.62 94.66,166.62 "/>
<path class="st1" d="M104.58,188.34l-3.01-10.16l-0.68-3.93l-0.08,0.06l-0.02,0.25c-0.13,1.39-0.24,2.15-0.71,3.64l-3.21,10.13
	h-5.41l6.89-21.72h6.3l3.43,12.12l0.08-0.06l1.43-6.02l1.92-6.05h5.41l-6.89,21.72H104.58z"/>
<polygon class="st1" points="129.72,188.34 113.42,188.34 120.31,166.62 136.62,166.62 135.03,171.62 125.25,171.62 124.24,174.79 
	132.16,174.79 130.62,179.64 122.7,179.64 121.59,183.15 131.37,183.15 "/>
<polygon class="st1" points="147.49,179.16 144.58,188.34 138.12,188.34 141.03,179.16 137.69,166.62 145.01,166.62 146.54,173.78 
	152.45,166.62 158.28,166.62 "/>
<path class="st1" d="M172.16,188.34h-3.26l-0.16-2.28c-1.94,1.84-4.47,2.59-6.71,2.59c-6.33,0-8.18-4.87-6.28-10.82
	c0.9-2.85,2.57-5.83,5.09-8.07c2.88-2.6,5.78-3.45,8.98-3.45c5.03,0,7.57,2.57,6.94,7.54l-6.67,0.67c0.3-1.74,0.1-3.39-1.93-3.39
	c-3.07,0-4.57,4.12-5.27,6.33c-0.4,1.27-0.85,2.85-0.7,3.99c0.14,1.27,0.93,2.09,2.31,2.09c1.71,0,3.31-1.05,3.85-2.76h-3.57
	l1.45-4.59h9.78L172.16,188.34z"/>
<path class="st1" d="M194.88,180.58c-0.8,2.54-1.73,4.56-4.36,6.24c-2.33,1.46-4.73,1.83-7.01,1.83c-1.99,0-4.45-0.44-5.77-1.55
	c-1.83-1.52-1.62-3.57-0.8-6.17l4.54-14.31h6.77l-4.3,13.55c-0.23,0.73-0.58,1.71-0.35,2.37c0.29,0.7,1.22,0.99,2.07,0.99
	c0.76,0,1.78-0.22,2.51-0.73c1.09-0.73,1.36-1.87,1.67-2.88l4.22-13.3h5.23L194.88,180.58z"/>
<polygon class="st1" points="210.82,179.16 207.91,188.34 201.45,188.34 204.36,179.16 201.02,166.62 208.34,166.62 209.86,173.78 
	215.78,166.62 221.61,166.62 "/>
<path class="st1" d="M223.9,180.93c-0.04,1.93,1.19,2.63,3.13,2.63c0.85,0,2.6-0.13,2.99-1.33c0.42-1.33-1.17-1.58-2.1-1.78
	c-3.83-0.79-8.32-1.9-6.69-7.06c0.68-2.12,2.39-4.21,4.52-5.45c2.16-1.23,4.61-1.65,6.76-1.65c3.76,0,6.92,1.56,7.05,5.32
	l-6.04,1.68c-0.12-1.61-1.15-2.18-2.83-2.18c-0.88,0-2.23,0.25-2.59,1.39c-0.36,1.14,1.15,1.36,1.91,1.55
	c1.92,0.41,4,0.76,5.59,1.74c1.76,1.14,2.22,3.17,1.47,5.54c-1.66,5.23-7.51,7.31-12.01,7.31c-4.55,0-8.01-1.9-7.68-6.61
	L223.9,180.93z"/>
<path class="st2" d="M62.91,117.94c0,0,5.35-9.13,6.52-11.35"/>
<path class="st3" d="M62.91,117.94c0,0,5.35-9.13,6.52-11.35"/>
<path class="st2" d="M59.65,112.07c0,0,3.78-4.31,5.35-7.69"/>
<path class="st3" d="M59.65,112.07c0,0,3.78-4.31,5.35-7.69"/>
<path class="st2" d="M183.14,120.81c0,0-5.35-8.21-7.3-13.04"/>
<path class="st3" d="M183.14,120.81c0,0-5.35-8.21-7.3-13.04"/>
<path class="st2" d="M180.14,107.64c0,0,1.92,4.67,5.13,7.16"/>
<path class="st3" d="M180.14,107.64c0,0,1.92,4.67,5.13,7.16"/>
</svg>
